<?xml version="1.0" standalone="no"?>
<!DOCTYPE svg PUBLIC "-//W3C//DTD SVG 20010904//EN"
 "http://www.w3.org/TR/2001/REC-SVG-20010904/DTD/svg10.dtd">
<svg version="1.0" xmlns="http://www.w3.org/2000/svg"
 width="512.000000pt" height="512.000000pt" viewBox="0 0 512.000000 512.000000"
 preserveAspectRatio="xMidYMid meet">
<metadata>
Created by potrace 1.14, written by Peter Selinger 2001-2017
</metadata>
<g transform="translate(0.000000,512.000000) scale(0.100000,-0.100000)"
fill="#000000" stroke="none">
<path d="M0 2560 l0 -2560 2560 0 2560 0 0 2560 0 2560 -2560 0 -2560 0 0
-2560z m628 1373 l-3 -118 -135 0 -135 0 -3 118 -3 117 141 0 141 0 -3 -117z
m2554 -255 l3 -373 134 165 c73 91 141 171 149 178 17 13 287 18 295 4 3 -4
-63 -85 -145 -180 -134 -155 -149 -176 -140 -195 6 -12 82 -146 170 -297 88
-151 158 -278 155 -282 -2 -5 -69 -8 -149 -8 l-144 0 -28 44 c-15 24 -65 114
-112 199 -47 86 -88 157 -91 157 -3 0 -27 -27 -53 -59 l-46 -59 0 -141 0 -141
-140 0 -140 0 0 680 0 680 140 0 140 0 2 -372z m1056 255 l-3 -118 -135 0
-135 0 -3 118 -3 117 141 0 141 0 -3 -117z m540 0 l-3 -118 -135 0 -135 0 -3
118 -3 117 141 0 141 0 -3 -117z m-3316 -282 c167 -64 244 -173 269 -383 27
-230 -36 -426 -164 -514 -140 -97 -366 -111 -519 -33 -61 31 -134 105 -163
163 -73 150 -73 432 0 582 46 95 162 180 277 204 75 16 236 5 300 -19z m1003
14 c33 -9 84 -30 114 -48 57 -35 134 -113 129 -133 -3 -13 -182 -134 -198
-134 -5 0 -17 11 -27 24 -51 64 -152 86 -223 48 -62 -34 -75 -76 -75 -247 0
-132 2 -155 21 -189 51 -98 203 -103 277 -10 10 13 22 24 27 24 16 0 195 -121
198 -134 5 -20 -72 -98 -129 -133 -69 -41 -154 -63 -244 -63 -230 0 -395 131
-434 345 -14 75 -14 245 0 321 23 126 102 240 202 290 104 53 247 68 362 39z
m-1840 -560 l0 -550 -28 -57 c-57 -116 -146 -162 -312 -163 l-100 0 0 115 0
115 62 5 c106 9 98 -37 101 553 1 282 4 518 7 525 3 10 37 12 137 10 l133 -3
0 -550z m3613 68 l2 -483 -140 0 -140 0 0 478 c0 263 3 482 7 486 4 3 66 5
137 4 l131 -3 3 -482z m540 0 l2 -483 -140 0 -140 0 0 478 c0 263 3 482 7 486
4 3 66 5 137 4 l131 -3 3 -482z m-3778 -1403 l0 -680 -140 0 -140 0 0 46 0 47
-20 -26 c-57 -72 -219 -106 -344 -73 -176 48 -256 201 -256 491 0 270 68 420
220 482 33 13 71 18 145 18 89 0 106 -3 157 -28 32 -16 67 -40 78 -54 l20 -26
0 242 0 241 140 0 140 0 0 -680z m921 279 c24 -13 45 -32 47 -41 3 -17 -100
-212 -118 -223 -5 -3 -29 4 -52 16 -58 31 -145 32 -185 3 -15 -11 -37 -38 -48
-60 -18 -36 -20 -62 -23 -346 l-3 -308 -140 0 -139 0 2 483 3 482 135 0 135 0
3 -45 3 -46 44 43 c57 55 117 74 216 70 57 -3 86 -9 120 -28z m1814 16 c33 -9
84 -30 114 -48 57 -35 134 -113 129 -133 -3 -13 -182 -134 -198 -134 -5 0 -17
11 -27 24 -51 64 -152 86 -223 48 -62 -34 -75 -76 -75 -247 0 -132 2 -155 21
-189 51 -98 203 -103 277 -10 10 13 22 24 27 24 16 0 195 -121 198 -134 5 -20
-72 -98 -129 -133 -135 -80 -329 -84 -477 -9 -99 50 -178 164 -201 290 -14 76
-14 246 0 321 31 168 138 286 302 330 70 18 189 18 262 0z m1018 -14 c107 -42
187 -122 228 -232 22 -57 48 -282 36 -312 -6 -15 -34 -17 -312 -17 l-305 0 0
-22 c1 -38 36 -104 66 -125 90 -63 233 -55 332 17 23 16 44 30 48 30 12 0 154
-136 154 -147 0 -18 -91 -87 -154 -117 -77 -36 -168 -56 -261 -56 -245 0 -398
113 -450 333 -18 74 -20 264 -4 339 36 166 145 283 304 324 77 20 246 12 318
-15z m-2371 -313 c3 -289 5 -327 21 -356 52 -95 192 -95 244 0 16 29 18 67 21
356 l3 322 140 0 139 0 0 -485 0 -485 -140 0 -140 0 0 46 0 47 -19 -25 c-37
-46 -118 -81 -201 -86 -116 -7 -179 15 -250 86 -94 94 -94 94 -98 530 l-3 372
140 0 140 0 3 -322z"/>
<path d="M1200 3422 c-62 -34 -75 -76 -75 -247 0 -132 2 -155 21 -189 25 -49
74 -76 137 -76 117 0 167 79 167 265 0 138 -29 219 -90 250 -40 21 -118 19
-160 -3z"/>
<path d="M470 1822 c-62 -34 -75 -76 -75 -247 0 -132 2 -155 21 -189 26 -50
74 -76 139 -76 106 0 153 65 162 223 5 94 -6 187 -29 235 -32 67 -142 94 -218
54z"/>
<path d="M4484 1846 c-42 -19 -76 -69 -82 -122 l-5 -44 173 0 173 0 -7 43
c-13 84 -77 137 -165 137 -31 -1 -70 -7 -87 -14z"/>
</g>
</svg>
